#!OML:ASF F:\VICON\USERDATA\INSTALL\rory3\rory3.ASF
:FULLY-SPECIFIED
:DEGREES
16
root 0.610518 17.8675 -19.8097 -3.37784 0.621622 1.93307
lowerback 12.344 -0.689246 -3.81341
upperback 0.243435 -1.38081 1.13294
thorax -6.55959 -0.536966 3.59913
lowerneck -15.9142 -2.5778 -2.35407
upperneck 21.5336 -2.89389 -0.380468
head 9.45559 -1.58712 -0.108001
rclavicle -1.45113e-014 1.98785e-015
rhumerus -35.1011 -23.196 -74.8721
rradius 22.4979
rwrist 7.14763
rhand -16.7497 21.5991
rfingers 7.12502
rthumb 9.47687 -8.16776
lclavicle -1.45113e-014 1.98785e-015
lhumerus -26.1486 7.27509 80.8942
lradius 26.9657
lwrist 8.46473
lhand -27.0346 22.2179
lfingers 7.12502
lthumb -0.453503 52.1971
rfemur -31.1401 1.85159 19.8406
rtibia 47.4198
rfoot -9.92464 -10.8934
rtoes 6.81388
lfemur 1.09964 -2.73564 -26.956
ltibia 24.5661
lfoot -16.8237 1.11846
ltoes 1.46281
17
root 0.599928 17.8716 -19.6426 -3.12682 0.929606 2.08627
lowerback 12.2263 -0.766847 -3.92973
upperback 0.230517 -1.50055 1.06598
thorax -6.49541 -0.594491 3.61144
lowerneck -16.2985 -2.60621 -2.24202
upperneck 21.6557 -2.95792 -0.357655
head 9.56877 -1.60443 -0.133457
rclavicle 1.9456e-014 3.97569e-015
rhumerus -35.309 -23.3316 -74.8485
rradius 22.4691
rwrist 7.02335
rhand -16.9717 21.8922
rfingers 7.12502
rthumb 9.26269 -7.88434
lclavicle 1.9456e-014 3.97569e-015
lhumerus -25.6226 6.73261 80.9306
lradius 27.4067
lwrist 8.96279
lhand -27.2433 22.0536
lfingers 7.12502
lthumb -0.655115 52.0323
rfemur -31.3051 2.22833 19.3611
rtibia 44.7964
rfoot -9.63147 -11.8447
rtoes 7.21688
lfemur 1.82319 -2.87517 -27.092
ltibia 23.7926
lfoot -17.0476 1.06
ltoes 0.302427
18
root 0.589035 17.8767 -19.478 -2.88891 1.12027 2.22596
lowerback 12.067 -0.968811 -4.21953
upperback 0.0120794 -1.79768 1.20557
thorax -6.59898 -0.721811 3.97443
lowerneck -15.6265 -2.44958 -2.59638
upperneck 21.4525 -2.69087 -0.25608
head 9.37781 -1.49899 0.00541021
rclavicle 2.74074e-014 -7.95139e-016
rhumerus -35.7855 -23.003 -74.5298
rradius 22.3623
rwrist 7.03067
rhand -17.1261 22.2561
rfingers 7.12502
rthumb 9.11364 -7.52701
lclavicle 2.74074e-014 -7.95139e-016
lhumerus -25.8837 6.75514 80.9665
lradius 28.1099
lwrist 8.98011
lhand -27.638 22.2976
lfingers 7.12502
lthumb -1.03629 52.2749
rfemur -31.4476 2.81332 18.8699
rtibia 42.0478
rfoot -8.91969 -12.8556
rtoes 9.15062
lfemur 2.65251 -3.008 -27.2426
ltibia 22.7837
lfoot -16.8455 1.14721
ltoes 0.224086
19
root 0.579348 17.8842 -19.3138 -2.71556 1.29884 2.23359
lowerback 11.9419 -1.55138 -4.87538
upperback -0.53372 -2.62481 1.85945
thorax -6.97224 -1.06929 5.19495
lowerneck -13.5211 -1.87092 -3.56354
upperneck 20.7704 -1.69898 -0.408995
head 8.75281 -1.12752 0.260914
rclavicle -1.11816e-014 -9.54166e-015
rhumerus -36.4815 -20.6025 -74.2013
rradius 22.3783
rwrist 6.60727
rhand -16.8478 21.8808
rfingers 7.12502
rthumb 9.38222 -7.89038
lclavicle -1.11816e-014 -9.54166e-015
lhumerus -27.2397 8.34542 81.0068
lradius 28.9382
lwrist 8.58394
lhand -27.9189 22.5278
lfingers 7.12502
lthumb -1.30755 52.5035
rfemur -31.453 3.33171 18.5204
rtibia 39.2071
rfoot -8.20633 -13.9211
rtoes 9.87902
lfemur 3.48252 -2.97814 -27.209
ltibia 21.8851
lfoot -16.7765 0.900149
ltoes 0.645552
20
root 0.568031 17.8756 -19.1432 -2.48498 1.57506 2.58585
lowerback 11.5593 -0.947031 -4.21968
upperback 0.42833 -1.76221 0.848027
thorax -5.88545 -0.73779 3.56301
lowerneck -17.3077 -2.65257 -1.97092
upperneck 21.5953 -3.08673 -0.285531
head 9.73234 -1.6301 -0.184258
rclavicle -2.9122e-014 7.95139e-015
rhumerus -35.5876 -24.8431 -74.4929
rradius 22.2457
rwrist 7.10975
rhand -16.7723 21.7899
rfingers 7.12502
rthumb 9.45508 -7.97795
lclavicle -2.9122e-014 7.95139e-015
lhumerus -23.7942 5.08239 81.1845
lradius 28.8096
lwrist 8.87624
lhand -28.1054 23.6485
lfingers 7.12502
lthumb -1.48772 53.6231
rfemur -31.4137 3.52319 17.8667
rtibia 36.3034
rfoot -7.65779 -14.8065
rtoes 10.7391
lfemur 4.23065 -2.71469 -27.4897
ltibia 21.1237
lfoot -16.9393 0.594675
ltoes -0.375921
21
root 0.557076 17.8554 -18.9639 -2.20633 1.68113 2.87329
lowerback 11.1629 -1.08372 -4.61279
upperback 0.116694 -1.98164 0.884028
thorax -5.9593 -0.826506 3.85123
lowerneck -16.0982 -2.55125 -2.14598
upperneck 21.1814 -2.92921 -0.281784
head 9.36436 -1.57385 -0.112482
rclavicle -3.13086e-015 -1.27222e-014
rhumerus -36.3721 -24.5822 -74.0831
rradius 22.1032
rwrist 6.96866
rhand -17.0348 21.5653
rfingers 7.12502
rthumb 9.20178 -8.21392
lclavicle -3.13086e-015 -1.27222e-014
lhumerus -24.0712 5.07964 81.1411
lradius 29.2719
lwrist 8.85133
lhand -28.2706 24.9392
lfingers 7.12502
lthumb -1.64723 54.9125
rfemur -31.3136 3.72057 17.3873
rtibia 33.3795
rfoot -7.26157 -15.4647
rtoes 11.1636
lfemur 4.9185 -2.44275 -27.7369
ltibia 20.4834
lfoot -16.9003 0.530507
ltoes -0.765948
22
root 0.543454 17.8397 -18.7905 -2.11284 1.59859 2.83538
lowerback 11.1479 -1.11647 -4.65505
upperback 0.0953116 -2.02569 0.96067
thorax -5.96503 -0.845269 3.96298
lowerneck -16.2472 -2.51298 -2.16062
upperneck 21.1905 -2.85909 -0.319371
head 9.3942 -1.54636 -0.116153
rclavicle -3.01407e-014 7.55382e-015
rhumerus -36.6092 -24.5352 -73.9973
rradius 22.1155
rwrist 6.77351
rhand -17.4088 20.9435
rfingers 7.12502
rthumb 8.84089 -8.85132
lclavicle -3.01407e-014 7.55382e-015
lhumerus -23.854 5.08289 81.1119
lradius 29.7676
lwrist 8.90356
lhand -28.5338 24.5897
lfingers 7.12502
lthumb -1.90142 54.561
rfemur -31.0428 4.06489 17.2872
rtibia 30.4951
rfoot -7.2912 -15.9081
rtoes 8.81757
lfemur 5.72421 -2.25523 -27.6744
ltibia 19.9557
lfoot -16.8192 0.641627
ltoes -0.239589
23
root 0.531141 17.8316 -18.62 -2.00914 1.67538 2.97322
lowerback 11.2798 -1.12416 -4.76724
upperback 0.0363448 -2.06158 0.907795
thorax -6.09655 -0.854977 3.9824
lowerneck -16.6748 -2.53759 -2.10572
upperneck 21.5205 -2.90825 -0.277129
head 9.58936 -1.55965 -0.12575
rclavicle -1.21507e-014 -7.55382e-015
rhumerus -36.9387 -24.7901 -73.9026
rradius 22.198
rwrist 6.67093
rhand -17.3507 21.1329
rfingers 7.12502
rthumb 8.89692 -8.65955
lclavicle -1.21507e-014 -7.55382e-015
lhumerus -23.6164 4.73036 81.088
lradius 30.1825
lwrist 9.07841
lhand -28.4723 22.4746
lfingers 7.12502
lthumb -1.8421 52.4463
rfemur -30.7307 4.30713 16.918
rtibia 27.6113
rfoot -7.69727 -16.032
rtoes 6.15178
lfemur 6.39246 -2.31451 -27.8264
ltibia 19.6013
lfoot -16.8223 0.755385
ltoes 0.397515
24
root 0.521063 17.8224 -18.4459 -1.87789 1.7677 2.98099
lowerback 11.1422 -1.10065 -4.66613
upperback 0.0170708 -2.01438 0.850025
thorax -6.04963 -0.83686 3.85208
lowerneck -16.7063 -2.60587 -2.01937
upperneck 21.5889 -3.03003 -0.263194
head 9.61895 -1.60739 -0.152265
rclavicle 1.68718e-014 -2.78299e-015
rhumerus -37.3041 -25.4891 -73.5614
rradius 22.0807
rwrist 6.677
rhand -16.7682 22.1414
rfingers 7.12502
rthumb 9.45899 -7.62634
lclavicle 1.68718e-014 -2.78299e-015
lhumerus -23.1663 4.18436 81.1324
lradius 30.3961
lwrist 9.20467
lhand -28.7609 22.1101
lfingers 7.12502
lthumb -2.12082 52.0793
rfemur -30.4116 4.3427 16.744
rtibia 24.8334
rfoot -8.40203 -15.7048
rtoes 4.94486
lfemur 7.0686 -2.27558 -27.7881
ltibia 19.2458
lfoot -16.8684 0.734656
ltoes -0.15103
25
root 0.508239 17.8083 -18.2696 -1.75984 1.69511 2.79735
lowerback 10.9604 -1.09599 -4.49547
upperback -0.0363424 -1.97258 0.949555
thorax -6.0099 -0.820327 3.84909
lowerneck -16.4817 -2.61854 -2.08106
upperneck 21.4716 -3.03872 -0.252947
head 9.53736 -1.61579 -0.135386
rclavicle 1.04362e-014 -4.77083e-015
rhumerus -37.6745 -25.8113 -73.113
rradius 21.7783
rwrist 6.73827
rhand -16.1836 23.7231
rfingers 7.12502
rthumb 10.023 -6.01825
lclavicle 1.04362e-014 -4.77083e-015
lhumerus -22.9025 3.93327 81.1989
lradius 30.7652
lwrist 9.38499
lhand -28.8858 23.7989
lfingers 7.12502
lthumb -2.24143 53.7669
rfemur -30.1129 4.88168 16.6638
rtibia 22.222
rfoot -9.2324 -15.0266
rtoes 4.55963
lfemur 7.8143 -2.11358 -27.5088
ltibia 18.8119
lfoot -16.9502 0.683772
ltoes -0.741354
26
root 0.493995 17.7937 -18.0976 -1.70045 1.78796 2.95265
lowerback 11.0489 -1.23581 -4.81034
upperback -0.225414 -2.20012 1.06918
thorax -6.2226 -0.910247 4.19702
lowerneck -15.8869 -2.47775 -2.31152
upperneck 21.2317 -2.81238 -0.189123
head 9.34609 -1.52338 -0.0359031
rclavicle 3.3371e-014 -2.38542e-015
rhumerus -38.1604 -25.8485 -72.5587
rradius 21.4111
rwrist 7.04278
rhand -18.4884 20.3189
rfingers 7.12502
rthumb 7.799 -9.51731
lclavicle 3.3371e-014 -2.38542e-015
lhumerus -22.9829 4.3851 81.1826
lradius 30.9665
lwrist 9.47323
lhand -29.0188 23.2277
lfingers 7.12502
lthumb -2.36983 53.1943
rfemur -29.658 5.99927 15.9151
rtibia 19.6853
rfoot -9.07139 -14.1291
rtoes 7.07234
lfemur 8.55638 -2.10821 -27.6059
ltibia 18.4277
lfoot -16.8488 0.574031
ltoes -1.42539
